<svg width="30" height="30" viewBox="0 0 30 30" fill="none" xmlns="http://www.w3.org/2000/svg">
<path fill-rule="evenodd" clip-rule="evenodd" d="M15 30C23.2843 30 30 23.2843 30 15C30 6.71575 23.2843 0 15 0C6.71575 0 0 6.71575 0 15C0 23.2843 6.71575 30 15 30ZM15 28.125C22.2488 28.125 28.125 22.2488 28.125 15C28.125 7.75125 22.2488 1.875 15 1.875C7.75125 1.875 1.875 7.75125 1.875 15C1.875 22.2488 7.75125 28.125 15 28.125Z" fill="#F7931A"/>
<path d="M13.188 22.7083C10.8074 22.0704 9.1676 20.9214 8.26873 19.2614C7.38392 17.6051 7.26798 15.5585 7.92098 13.1216C8.2456 11.9101 8.72448 10.8835 9.35773 10.0416C9.99473 9.18562 10.731 8.52237 11.5667 8.05181C12.4062 7.56712 13.329 7.27844 14.3352 7.18569C15.3414 7.09294 16.3798 7.19 17.4504 7.47687C18.0702 7.64294 18.6204 7.84325 19.1011 8.07769C19.5856 8.29812 20.001 8.52269 20.3474 8.75137C20.6975 8.96594 20.9824 9.17062 21.202 9.36531C21.4216 9.56006 21.5782 9.70769 21.6721 9.80831L20.0079 12.2159C19.6212 11.8556 19.1477 11.5099 18.5874 11.1785C18.041 10.8509 17.3875 10.5852 16.6268 10.3814C16.1197 10.2456 15.597 10.1961 15.0587 10.233C14.5344 10.2737 14.0312 10.4333 13.549 10.7117C13.0846 10.9798 12.6604 11.3795 12.2765 11.9107C11.8926 12.442 11.5874 13.1302 11.361 13.9754C11.1798 14.6515 11.0804 15.3043 11.0627 15.9336C11.0629 16.5527 11.1684 17.1169 11.3792 17.6264C11.604 18.1396 11.95 18.5946 12.4174 18.9916C12.8885 19.3745 13.5044 19.6679 14.2651 19.8717C14.744 20 15.1812 20.0869 15.5767 20.1325C15.9721 20.1781 16.3272 20.2053 16.6419 20.2141C16.9603 20.2089 17.2454 20.1871 17.4972 20.1489C17.749 20.1107 17.9778 20.0739 18.1836 20.0384L18.3844 22.9231C17.8441 23.0802 17.1212 23.1583 16.2155 23.1572C15.31 23.1561 14.3008 23.0065 13.188 22.7083Z" fill="#F7931A"/>
<path d="M16.3424 4.98974L14.5916 4.52063L13.6049 8.20322L15.3556 8.67233L16.3424 4.98974Z" fill="#F7931A"/>
<path d="M12.0881 20.8671L10.3373 20.398L9.3506 24.0806L11.1013 24.5497L12.0881 20.8671Z" fill="#F7931A"/>
<path d="M19.6628 5.87942L17.912 5.41031L16.9253 9.09291L18.676 9.56202L19.6628 5.87942Z" fill="#F7931A"/>
<path d="M15.4084 21.7569L13.6577 21.2878L12.671 24.9703L14.4217 25.4395L15.4084 21.7569Z" fill="#F7931A"/>
</svg>
