<svg width="114" height="114" viewBox="0 0 114 114" fill="none" xmlns="http://www.w3.org/2000/svg">
<circle cx="57" cy="57" r="57" fill="#36436F"/>
<path d="M32.898 80.0095V77M32.898 77L14.42 27.7823C14.0532 26.8053 15.2402 25.9901 16.0203 26.6832L37.6642 45.9112C37.8778 46.1009 38 46.373 38 46.6588V76C38 76.5523 37.5523 77 37 77H32.898Z" stroke="white" stroke-width="4"/>
<path d="M78 79L80.102 77M80.102 77L98.58 27.7823C98.9468 26.8053 97.7598 25.9901 96.9797 26.6832L75.3358 45.9112C75.1222 46.1009 75 46.373 75 46.6588V76C75 76.5523 75.4477 77 76 77H80.102Z" stroke="white" stroke-width="4"/>
<path d="M39.5 55C39.5 54.4477 39.9477 54 40.5 54H73C73.5523 54 74 54.4477 74 55V56.5C74 57.0523 73.5523 57.5 73 57.5H40.5C39.9477 57.5 39.5 57.0523 39.5 56.5V55Z" fill="#FFD55A" stroke="#FFD55A"/>
<path d="M39 65C39 64.4477 39.4477 64 40 64H73C73.5523 64 74 64.4477 74 65V66.5C74 67.0523 73.5523 67.5 73 67.5H40C39.4477 67.5 39 67.0523 39 66.5V65Z" fill="#FFD55A" stroke="#FFD55A"/>
<path d="M32 46.5C32 47.0523 32.4477 47.5 33 47.5H81C81.5523 47.5 82 47.0523 82 46.5V43C82 42.4477 81.5523 42 81 42H33C32.4477 42 32 42.4477 32 43V46.5Z" fill="#FFD55A" stroke="#FFD55A"/>
<path d="M53 42.5C52.4477 42.5 52 42.0523 52 41.5V38C52 37.4477 52.4477 37 53 37H60.5C61.0523 37 61.5 37.4477 61.5 38V41.5C61.5 42.0523 61.0523 42.5 60.5 42.5H53Z" fill="#FFD55A" stroke="#FFD55A"/>
<path d="M37 47C36.4477 47 36 47.4477 36 48V76C36 76.5523 36.4477 77 37 77H40.5C41.0523 77 41.5 76.5523 41.5 76V61V48C41.5 47.4477 41.0523 47 40.5 47H37Z" fill="#FFD55A" stroke="#FFD55A"/>
<path d="M72.5 47C71.9477 47 71.5 47.4477 71.5 48V76.5C71.5 77.0523 71.9477 77.5 72.5 77.5H76C76.5523 77.5 77 77.0523 77 76.5V48C77 47.4477 76.5523 47 76 47H72.5Z" fill="#FFD55A" stroke="#FFD55A"/>
<path d="M80 75H81C81.5523 75 82 75.4477 82 76V103C82 103.552 81.5523 104 81 104H77.5C76.9477 104 76.5 103.552 76.5 103V80V75H80Z" fill="#FFD55A"/>
<path d="M41.5 75H72H76.5M76.5 75H80H81C81.5523 75 82 75.4477 82 76V103C82 103.552 81.5523 104 81 104H77.5C76.9477 104 76.5 103.552 76.5 103V80V75Z" stroke="#FFD55A"/>
<path d="M34.5 75H35.5C36.0523 75 36.5 75.4477 36.5 76V103C36.5 103.552 36.0523 104 35.5 104H32C31.4477 104 31 103.552 31 103V80V76C31 75.4477 31.4477 75 32 75H34.5Z" fill="#FFD55A" stroke="#FFD55A"/>
<path d="M37.5 79H77V75C77 74.4477 76.5523 74 76 74H38C37.4477 74 37 74.4477 37 75V79H37.5Z" fill="#FFD55A"/>
<path fill-rule="evenodd" clip-rule="evenodd" d="M41.5 85C40.9477 85 40.5 85.4477 40.5 86V102C40.5 102.552 40.9477 103 41.5 103H71.5C72.0523 103 72.5 102.552 72.5 102V86C72.5 85.4477 72.0523 85 71.5 85H41.5ZM66.5 97.5C66.5 98.0523 66.0523 98.5 65.5 98.5H47.5C46.9477 98.5 46.5 98.0523 46.5 97.5V93.5V90.5C46.5 89.9477 46.9477 89.5 47.5 89.5H65.5C66.0523 89.5 66.5 89.9477 66.5 90.5V97.5Z" fill="#FFD55A"/>
<path d="M77 79H37.5H37M77 79H37M77 79V75C77 74.4477 76.5523 74 76 74H38C37.4477 74 37 74.4477 37 75V79M46.5 93.5V90.5C46.5 89.9477 46.9477 89.5 47.5 89.5H65.5C66.0523 89.5 66.5 89.9477 66.5 90.5V97.5C66.5 98.0523 66.0523 98.5 65.5 98.5H47.5C46.9477 98.5 46.5 98.0523 46.5 97.5V93.5ZM72.5 86V102C72.5 102.552 72.0523 103 71.5 103H41.5C40.9477 103 40.5 102.552 40.5 102V86C40.5 85.4477 40.9477 85 41.5 85H71.5C72.0523 85 72.5 85.4477 72.5 86Z" stroke="#FFD55A"/>
</svg>
